<svg width="2500" height="2500" viewBox="0 0 2500 2500" fill="none" xmlns="http://www.w3.org/2000/svg">
<path d="M537.163 2299.2L375.977 491.309H2147.14L1985.78 2298.92L1260.47 2500L537.163 2299.2Z" fill="#264DE4"/>
<path d="M1847.64 2183.82L1985.53 639.131H1261.56V2346.3L1847.64 2183.82Z" fill="#2965F1"/>
<path d="M745.493 1309.65L765.366 1531.38H1261.56V1309.65H745.493Z" fill="#EBEBEB"/>
<path d="M725.718 1082.6H1261.56V860.864H1260.79H705.562L725.718 1082.6Z" fill="#EBEBEB"/>
<path d="M1260.54 2116.49L1261.56 2116.21V1885.51L1260.59 1885.77L1013.64 1819.09L997.856 1642.25H877.861H775.273L806.338 1990.4L1260.54 2116.49Z" fill="#EBEBEB"/>
<path d="M792.808 0H1061.36V112.305H905.112V224.609H1061.36V336.914H792.808V0Z" fill="black"/>
<path d="M1115.07 0H1383.63V97.6562H1227.38V117.187H1383.63V341.797H1115.07V239.258H1271.32V219.727H1115.07V0Z" fill="black"/>
<path d="M1437.34 0H1705.89V97.6562H1549.64V117.187H1705.89V341.797H1437.34V239.258H1593.59V219.727H1437.34V0Z" fill="black"/>
<path d="M1816.23 860.864H1260.79V1082.6H1573.23L1553.06 1309.65H1260.79V1531.38H1533.83L1508.09 1818.95L1260.79 1885.7V2116.38L1715.35 1990.4L1718.69 1952.94L1770.79 1369.19L1776.2 1309.65L1816.23 860.864Z" fill="white"/>
</svg>
