<svg width="2500" height="2500" viewBox="0 0 2500 2500" fill="none" xmlns="http://www.w3.org/2000/svg">
<path d="M529.297 0H641.602V111.328H745.117V0H857.422V336.914H745.117V224.609H642.578V336.914H529.297M1005.86 112.305H906.738V0H1217.77V112.305H1118.16V336.914H1005.86M1267.09 0H1384.77L1457.03 118.652L1529.3 0H1646.97V336.914H1534.67V169.922L1456.05 291.016L1377.44 169.922V336.914H1267.09M1702.64 0H1814.94V225.586H1974.12V336.914H1702.64" fill="black"/>
<path d="M525.391 2299.8L364.258 491.211H2135.74L1974.61 2298.83L1248.54 2500" fill="#E44D26"/>
<path d="M1250 2346.19V639.648H1974.12L1835.94 2182.62" fill="#F16529"/>
<path d="M693.359 860.84H1250V1082.52H936.523L957.031 1309.57H1250V1530.76H753.906M763.672 1642.09H986.328L1001.95 1819.34L1250 1885.74V2117.19L794.922 1990.23" fill="#EBEBEB"/>
<path d="M1804.69 860.84H1249.02V1082.52H1784.18M1764.16 1309.57H1249.02V1531.25H1522.46L1496.58 1819.34L1249.02 1885.74V2116.21L1703.12 1990.23" fill="white"/>
</svg>
